<svg width="19" height="19" viewBox="0 0 19 19" fill="none" xmlns="http://www.w3.org/2000/svg">
<g clip-path="url(#clip0_2_636)">
<path d="M2.54648 3.13501H16.1449C16.3452 3.13501 16.5374 3.21445 16.6791 3.35584C16.8207 3.49724 16.9003 3.68901 16.9003 3.88898V15.9525C16.9003 16.1524 16.8207 16.3442 16.6791 16.4856C16.5374 16.627 16.3452 16.7064 16.1449 16.7064H2.54648C2.34612 16.7064 2.15396 16.627 2.01229 16.4856C1.87061 16.3442 1.79102 16.1524 1.79102 15.9525V3.88898C1.79102 3.68901 1.87061 3.49724 2.01229 3.35584C2.15396 3.21445 2.34612 3.13501 2.54648 3.13501ZM9.391 9.68172L4.54696 5.57636L3.56863 6.72541L9.40083 11.6677L15.128 6.72164L14.1399 5.58088L9.39176 9.68172H9.391Z" fill="#2B2B2B"/>
</g>
<defs>
<clipPath id="clip0_2_636">
<rect width="18.1312" height="18.0952" fill="white" transform="translate(0.280273 0.873047)"/>
</clipPath>
</defs>
</svg>
